<mxfile host="app.diagrams.net" modified="2023-12-05T08:40:13.379Z" agent="Mozilla/5.0 (Windows NT 10.0; Win64; x64) AppleWebKit/537.36 (KHTML, like Gecko) Chrome/119.0.0.0 Safari/537.36" etag="y2x_ZGCbtXGWCRhLGaHg" version="22.1.5" type="device">
  <diagram name="Page-1" id="-YdUmJq99ECq-pgO5PTW">
    <mxGraphModel dx="1434" dy="790" grid="1" gridSize="10" guides="1" tooltips="1" connect="1" arrows="1" fold="1" page="1" pageScale="1" pageWidth="850" pageHeight="1100" math="0" shadow="0">
      <root>
        <mxCell id="0" />
        <mxCell id="1" parent="0" />
        <mxCell id="4FBqjL0ywIXUpAmHDhvP-21" style="edgeStyle=orthogonalEdgeStyle;rounded=0;orthogonalLoop=1;jettySize=auto;html=1;exitX=0.5;exitY=1;exitDx=0;exitDy=0;entryX=0.5;entryY=0;entryDx=0;entryDy=0;" edge="1" parent="1" source="4FBqjL0ywIXUpAmHDhvP-1" target="4FBqjL0ywIXUpAmHDhvP-20">
          <mxGeometry relative="1" as="geometry" />
        </mxCell>
        <mxCell id="4FBqjL0ywIXUpAmHDhvP-1" value="Read A and B and if A is bigger than B, print out A, otherwise print B" style="rounded=1;whiteSpace=wrap;html=1;" vertex="1" parent="1">
          <mxGeometry x="320" y="40" width="160" height="80" as="geometry" />
        </mxCell>
        <mxCell id="4FBqjL0ywIXUpAmHDhvP-5" value="" style="edgeStyle=orthogonalEdgeStyle;rounded=0;orthogonalLoop=1;jettySize=auto;html=1;" edge="1" parent="1" source="4FBqjL0ywIXUpAmHDhvP-2">
          <mxGeometry relative="1" as="geometry">
            <mxPoint x="400" y="350" as="targetPoint" />
          </mxGeometry>
        </mxCell>
        <mxCell id="4FBqjL0ywIXUpAmHDhvP-2" value="Input B" style="shape=parallelogram;perimeter=parallelogramPerimeter;whiteSpace=wrap;html=1;fixedSize=1;rounded=1;" vertex="1" parent="1">
          <mxGeometry x="320" y="250" width="160" height="60" as="geometry" />
        </mxCell>
        <mxCell id="4FBqjL0ywIXUpAmHDhvP-72" style="edgeStyle=orthogonalEdgeStyle;rounded=0;orthogonalLoop=1;jettySize=auto;html=1;exitX=0.5;exitY=1;exitDx=0;exitDy=0;entryX=0;entryY=0.5;entryDx=0;entryDy=0;" edge="1" parent="1" source="4FBqjL0ywIXUpAmHDhvP-6" target="4FBqjL0ywIXUpAmHDhvP-14">
          <mxGeometry relative="1" as="geometry" />
        </mxCell>
        <mxCell id="4FBqjL0ywIXUpAmHDhvP-6" value="Print A" style="shape=parallelogram;perimeter=parallelogramPerimeter;whiteSpace=wrap;html=1;fixedSize=1;rounded=1;" vertex="1" parent="1">
          <mxGeometry x="150" y="650" width="120" height="60" as="geometry" />
        </mxCell>
        <mxCell id="4FBqjL0ywIXUpAmHDhvP-55" style="edgeStyle=orthogonalEdgeStyle;rounded=0;orthogonalLoop=1;jettySize=auto;html=1;exitX=1;exitY=0.5;exitDx=0;exitDy=0;entryX=0;entryY=0.5;entryDx=0;entryDy=0;" edge="1" parent="1" source="4FBqjL0ywIXUpAmHDhvP-13" target="4FBqjL0ywIXUpAmHDhvP-37">
          <mxGeometry relative="1" as="geometry" />
        </mxCell>
        <mxCell id="4FBqjL0ywIXUpAmHDhvP-56" value="No" style="edgeLabel;html=1;align=center;verticalAlign=middle;resizable=0;points=[];" vertex="1" connectable="0" parent="4FBqjL0ywIXUpAmHDhvP-55">
          <mxGeometry x="-0.0067" y="-1" relative="1" as="geometry">
            <mxPoint as="offset" />
          </mxGeometry>
        </mxCell>
        <mxCell id="4FBqjL0ywIXUpAmHDhvP-61" style="edgeStyle=orthogonalEdgeStyle;rounded=0;orthogonalLoop=1;jettySize=auto;html=1;exitX=0;exitY=0.5;exitDx=0;exitDy=0;entryX=1;entryY=0.5;entryDx=0;entryDy=0;" edge="1" parent="1" source="4FBqjL0ywIXUpAmHDhvP-13" target="4FBqjL0ywIXUpAmHDhvP-28">
          <mxGeometry relative="1" as="geometry" />
        </mxCell>
        <mxCell id="4FBqjL0ywIXUpAmHDhvP-62" value="Yes" style="edgeLabel;html=1;align=center;verticalAlign=middle;resizable=0;points=[];" vertex="1" connectable="0" parent="4FBqjL0ywIXUpAmHDhvP-61">
          <mxGeometry y="-1" relative="1" as="geometry">
            <mxPoint as="offset" />
          </mxGeometry>
        </mxCell>
        <mxCell id="4FBqjL0ywIXUpAmHDhvP-13" value="If (A &amp;gt; B)" style="rounded=0;whiteSpace=wrap;html=1;" vertex="1" parent="1">
          <mxGeometry x="340" y="450" width="120" height="60" as="geometry" />
        </mxCell>
        <mxCell id="4FBqjL0ywIXUpAmHDhvP-14" value="End&lt;br&gt;" style="rounded=1;whiteSpace=wrap;html=1;" vertex="1" parent="1">
          <mxGeometry x="340" y="810" width="120" height="60" as="geometry" />
        </mxCell>
        <mxCell id="4FBqjL0ywIXUpAmHDhvP-23" style="edgeStyle=orthogonalEdgeStyle;rounded=0;orthogonalLoop=1;jettySize=auto;html=1;exitX=0.5;exitY=1;exitDx=0;exitDy=0;" edge="1" parent="1" source="4FBqjL0ywIXUpAmHDhvP-20" target="4FBqjL0ywIXUpAmHDhvP-2">
          <mxGeometry relative="1" as="geometry" />
        </mxCell>
        <mxCell id="4FBqjL0ywIXUpAmHDhvP-20" value="Input A&lt;br&gt;" style="shape=parallelogram;perimeter=parallelogramPerimeter;whiteSpace=wrap;html=1;fixedSize=1;rounded=1;" vertex="1" parent="1">
          <mxGeometry x="320" y="160" width="160" height="60" as="geometry" />
        </mxCell>
        <mxCell id="4FBqjL0ywIXUpAmHDhvP-48" style="edgeStyle=orthogonalEdgeStyle;rounded=0;orthogonalLoop=1;jettySize=auto;html=1;exitX=0.5;exitY=1;exitDx=0;exitDy=0;entryX=0.5;entryY=0;entryDx=0;entryDy=0;" edge="1" parent="1" source="4FBqjL0ywIXUpAmHDhvP-27" target="4FBqjL0ywIXUpAmHDhvP-13">
          <mxGeometry relative="1" as="geometry" />
        </mxCell>
        <mxCell id="4FBqjL0ywIXUpAmHDhvP-27" value="Input C" style="shape=parallelogram;perimeter=parallelogramPerimeter;whiteSpace=wrap;html=1;fixedSize=1;rounded=1;" vertex="1" parent="1">
          <mxGeometry x="320" y="340" width="160" height="60" as="geometry" />
        </mxCell>
        <mxCell id="4FBqjL0ywIXUpAmHDhvP-51" style="edgeStyle=orthogonalEdgeStyle;rounded=0;orthogonalLoop=1;jettySize=auto;html=1;exitX=0.5;exitY=1;exitDx=0;exitDy=0;" edge="1" parent="1" source="4FBqjL0ywIXUpAmHDhvP-28" target="4FBqjL0ywIXUpAmHDhvP-6">
          <mxGeometry relative="1" as="geometry" />
        </mxCell>
        <mxCell id="4FBqjL0ywIXUpAmHDhvP-53" value="Yes" style="edgeLabel;html=1;align=center;verticalAlign=middle;resizable=0;points=[];" vertex="1" connectable="0" parent="4FBqjL0ywIXUpAmHDhvP-51">
          <mxGeometry x="-0.1231" y="-3" relative="1" as="geometry">
            <mxPoint as="offset" />
          </mxGeometry>
        </mxCell>
        <mxCell id="4FBqjL0ywIXUpAmHDhvP-64" style="edgeStyle=orthogonalEdgeStyle;rounded=0;orthogonalLoop=1;jettySize=auto;html=1;exitX=0.75;exitY=1;exitDx=0;exitDy=0;entryX=0.5;entryY=0;entryDx=0;entryDy=0;" edge="1" parent="1" source="4FBqjL0ywIXUpAmHDhvP-28" target="4FBqjL0ywIXUpAmHDhvP-33">
          <mxGeometry relative="1" as="geometry" />
        </mxCell>
        <mxCell id="4FBqjL0ywIXUpAmHDhvP-65" value="No" style="edgeLabel;html=1;align=center;verticalAlign=middle;resizable=0;points=[];" vertex="1" connectable="0" parent="4FBqjL0ywIXUpAmHDhvP-64">
          <mxGeometry x="-0.1067" y="2" relative="1" as="geometry">
            <mxPoint x="6" as="offset" />
          </mxGeometry>
        </mxCell>
        <mxCell id="4FBqjL0ywIXUpAmHDhvP-28" value="If (A &amp;gt; C)" style="rounded=0;whiteSpace=wrap;html=1;" vertex="1" parent="1">
          <mxGeometry x="150" y="450" width="120" height="60" as="geometry" />
        </mxCell>
        <mxCell id="4FBqjL0ywIXUpAmHDhvP-71" style="edgeStyle=orthogonalEdgeStyle;rounded=0;orthogonalLoop=1;jettySize=auto;html=1;exitX=0.5;exitY=1;exitDx=0;exitDy=0;entryX=0.5;entryY=0;entryDx=0;entryDy=0;" edge="1" parent="1" source="4FBqjL0ywIXUpAmHDhvP-33" target="4FBqjL0ywIXUpAmHDhvP-14">
          <mxGeometry relative="1" as="geometry" />
        </mxCell>
        <mxCell id="4FBqjL0ywIXUpAmHDhvP-33" value="Print C" style="shape=parallelogram;perimeter=parallelogramPerimeter;whiteSpace=wrap;html=1;fixedSize=1;rounded=1;" vertex="1" parent="1">
          <mxGeometry x="340" y="650" width="120" height="60" as="geometry" />
        </mxCell>
        <mxCell id="4FBqjL0ywIXUpAmHDhvP-57" style="edgeStyle=orthogonalEdgeStyle;rounded=0;orthogonalLoop=1;jettySize=auto;html=1;exitX=0.5;exitY=1;exitDx=0;exitDy=0;" edge="1" parent="1" source="4FBqjL0ywIXUpAmHDhvP-37" target="4FBqjL0ywIXUpAmHDhvP-33">
          <mxGeometry relative="1" as="geometry" />
        </mxCell>
        <mxCell id="4FBqjL0ywIXUpAmHDhvP-67" value="No" style="edgeLabel;html=1;align=center;verticalAlign=middle;resizable=0;points=[];" vertex="1" connectable="0" parent="4FBqjL0ywIXUpAmHDhvP-57">
          <mxGeometry x="-0.129" y="1" relative="1" as="geometry">
            <mxPoint x="-15" as="offset" />
          </mxGeometry>
        </mxCell>
        <mxCell id="4FBqjL0ywIXUpAmHDhvP-69" style="edgeStyle=orthogonalEdgeStyle;rounded=0;orthogonalLoop=1;jettySize=auto;html=1;exitX=0.75;exitY=1;exitDx=0;exitDy=0;entryX=0.5;entryY=0;entryDx=0;entryDy=0;" edge="1" parent="1" source="4FBqjL0ywIXUpAmHDhvP-37" target="4FBqjL0ywIXUpAmHDhvP-40">
          <mxGeometry relative="1" as="geometry" />
        </mxCell>
        <mxCell id="4FBqjL0ywIXUpAmHDhvP-70" value="Yes" style="edgeLabel;html=1;align=center;verticalAlign=middle;resizable=0;points=[];" vertex="1" connectable="0" parent="4FBqjL0ywIXUpAmHDhvP-69">
          <mxGeometry x="0.1143" y="4" relative="1" as="geometry">
            <mxPoint x="-4" y="-8" as="offset" />
          </mxGeometry>
        </mxCell>
        <mxCell id="4FBqjL0ywIXUpAmHDhvP-37" value="If (B &amp;gt; C)" style="rounded=0;whiteSpace=wrap;html=1;" vertex="1" parent="1">
          <mxGeometry x="510" y="450" width="120" height="60" as="geometry" />
        </mxCell>
        <mxCell id="4FBqjL0ywIXUpAmHDhvP-73" style="edgeStyle=orthogonalEdgeStyle;rounded=0;orthogonalLoop=1;jettySize=auto;html=1;exitX=0.5;exitY=1;exitDx=0;exitDy=0;entryX=1;entryY=0.5;entryDx=0;entryDy=0;" edge="1" parent="1" source="4FBqjL0ywIXUpAmHDhvP-40" target="4FBqjL0ywIXUpAmHDhvP-14">
          <mxGeometry relative="1" as="geometry" />
        </mxCell>
        <mxCell id="4FBqjL0ywIXUpAmHDhvP-40" value="Print B" style="shape=parallelogram;perimeter=parallelogramPerimeter;whiteSpace=wrap;html=1;fixedSize=1;rounded=1;" vertex="1" parent="1">
          <mxGeometry x="540" y="650" width="120" height="60" as="geometry" />
        </mxCell>
      </root>
    </mxGraphModel>
  </diagram>
</mxfile>
